<?xml version="1.0" encoding="utf-8"?>
<!-- Generator: Adobe Illustrator 14.0.0, SVG Export Plug-In . SVG Version: 6.00 Build 43363)  -->
<!DOCTYPE svg PUBLIC "-//W3C//DTD SVG 1.1//EN" "http://www.w3.org/Graphics/SVG/1.1/DTD/svg11.dtd">
<svg version="1.1"
	 id="ford" xmlns:svg="http://www.w3.org/2000/svg" xmlns:rdf="http://www.w3.org/1999/02/22-rdf-syntax-ns#" xmlns:dc="http://purl.org/dc/elements/1.1/" xmlns:cc="http://creativecommons.org/ns#"
	 xmlns="http://www.w3.org/2000/svg" xmlns:xlink="http://www.w3.org/1999/xlink" x="0px" y="0px" width="400px" height="300px"
	 viewBox="0 0 400 300" enable-background="new 0 0 400 300" xml:space="preserve">
<g id="layer1" transform="translate(-657.92486,-622.89716)">
	<path fill="#00307A" d="M857.923,703.921c-101.577,0-183.001,30.445-183.001,68.621c0,37.938,82.094,68.619,183.001,68.619
		c100.911,0,183.001-30.777,183.001-68.619C1040.92,734.705,958.831,703.921,857.923,703.921z"/>
	<g id="g4156" transform="matrix(3.6405116,0,0,-3.6405116,-3614.0161,1059.4319)">
		<g id="g4158">
			<g id="g4164">
				<g id="g4166">
					<path id="path4180" fill="#FFFFFF" d="M1180.944,78.81c0-9.118,21.237-16.509,47.435-16.509l0,0
						c26.196,0,47.431,7.391,47.431,16.509l0,0c0,9.118-21.235,16.508-47.431,16.508l0,0
						C1202.181,95.318,1180.944,87.928,1180.944,78.81 M1182.612,78.81c0,8.329,20.489,15.079,45.766,15.079l0,0
						c25.277,0,45.765-6.75,45.765-15.079l0,0c0-8.329-20.488-15.082-45.765-15.082l0,0
						C1203.101,63.728,1182.613,70.481,1182.612,78.81"/>
				</g>
			</g>
		</g>
	</g>
	<g id="g4182" transform="matrix(3.6405116,0,0,-3.6405116,-3614.0161,1059.4319)">
		<g id="g4184">
			<g id="g4190">
				<g id="g4192">
					<path id="path4206" fill="#FFFFFF" d="M1255.223,84.409c-0.188,0-0.284-0.023-0.373-0.197l0,0
						c-0.292-0.559-3.842-5.879-4.502-6.912l0,0c-0.111-0.157-0.248-0.135-0.263,0.044l0,0c-0.067,0.614-0.597,1.318-1.432,1.657
						l0,0c-0.635,0.257-1.259,0.305-1.904,0.22l0,0c-1.168-0.157-2.208-0.774-3.122-1.469l0,0c-1.38-1.047-2.568-2.406-4.104-3.409
						l0,0c-0.837-0.546-1.986-1.024-2.752-0.313l0,0c-0.695,0.644-0.617,2.075,0.445,3.182l0,0c0.112,0.117,0.248,0.021,0.227-0.084
						l0,0c-0.101-0.502,0.023-0.999,0.402-1.348l0,0c0.465-0.415,1.128-0.462,1.696-0.185l0,0c0.671,0.332,1.065,0.973,1.18,1.703
						l0,0c0.178,1.129-0.692,2.125-1.78,2.205l0,0c-0.883,0.062-1.731-0.245-2.557-0.927l0,0c-0.413-0.343-0.649-0.597-1.006-1.107
						l0,0c-0.088-0.124-0.222-0.137-0.217,0.047l0,0c0.041,1.447-0.557,2.259-1.753,2.288l0,0c-0.927,0.022-1.92-0.483-2.693-1.098
						l0,0c-0.847-0.681-1.589-1.581-2.381-2.429l0,0c-0.099-0.105-0.186-0.1-0.214,0.101l0,0c-0.023,0.959-0.265,1.887-0.708,2.546
						l0,0c-0.157,0.229-0.487,0.343-0.765,0.188l0,0c-0.128-0.069-0.574-0.275-0.899-0.537l0,0c-0.16-0.133-0.224-0.325-0.152-0.571
						l0,0c0.428-1.43,0.335-3.059-0.247-4.432l0,0c-0.533-1.259-1.57-2.396-2.788-2.779l0,0c-0.803-0.255-1.637-0.131-2.153,0.58
						l0,0c-0.709,0.982-0.422,2.69,0.635,4.108l0,0c0.933,1.248,2.281,2.041,3.627,2.552l0,0c0.159,0.061,0.192,0.163,0.146,0.297
						l0,0c-0.073,0.221-0.19,0.522-0.237,0.66l0,0c-0.123,0.328-0.47,0.382-0.892,0.335l0,0c-0.977-0.113-1.859-0.449-2.731-0.915
						l0,0c-2.282-1.221-3.425-3.587-3.926-4.851l0,0c-0.242-0.609-0.448-0.987-0.715-1.324l0,0
						c-0.358-0.453-0.811-0.863-1.637-1.589l0,0c-0.073-0.066-0.129-0.204-0.067-0.333l0,0c0.085-0.173,0.515-0.781,0.636-0.835l0,0
						c0.134-0.066,0.291,0.026,0.353,0.071l0,0c0.578,0.391,1.269,1.012,1.608,1.433l0,0c0.117,0.144,0.239,0.083,0.303-0.135l0,0
						c0.316-1.125,1.142-2.046,2.285-2.43l0,0c2.092-0.705,4.261,0.316,5.9,2.094l0,0c1.041,1.13,1.416,1.857,1.817,2.351l0,0
						c0.675,0.837,2.009,2.712,3.598,3.914l0,0c0.582,0.446,1.272,0.783,1.618,0.559l0,0c0.278-0.18,0.37-0.6-0.078-1.412l0,0
						c-1.619-2.959-4.002-6.432-4.44-7.276l0,0c-0.081-0.145-0.012-0.261,0.143-0.261l0,0c0.848,0.005,1.687,0.003,2.457,0.003l0,0
						c0.128,0.006,0.185,0.064,0.25,0.156l0,0c1.242,1.945,2.413,3.797,3.666,5.712l0,0c0.071,0.111,0.134,0.024,0.138-0.025l0,0
						c0.026-0.445,0.135-1.053,0.4-1.452l0,0c0.473-0.738,1.145-1.054,1.891-1.059l0,0c0.592-0.007,0.892,0.083,1.53,0.321l0,0
						c0.521,0.194,0.939,0.446,1.259,0.677l0,0c0.186,0.129,0.219-0.088,0.215-0.122l0,0c-0.288-1.544,0.068-3.374,1.603-4.133l0,0
						c1.838-0.905,3.856,0.368,5.018,1.516l0,0c0.113,0.111,0.234,0.099,0.246-0.139l0,0c0.023-0.438,0.224-0.96,0.586-1.325l0,0
						c0.972-0.976,2.938-0.589,4.908,0.936l0,0c1.265,0.976,2.589,2.357,3.784,3.819l0,0c0.045,0.056,0.078,0.148-0.012,0.24l0,0
						c-0.182,0.189-0.446,0.407-0.626,0.576l0,0c-0.082,0.069-0.202,0.05-0.273-0.004l0,0c-1.225-1.165-2.329-2.494-3.924-3.594l0,0
						c-0.537-0.376-1.395-0.678-1.78-0.157l0,0c-0.15,0.204-0.132,0.483,0.016,0.851l0,0c0.465,1.159,7.826,12.367,8.208,13.029l0,0
						c0.067,0.115,0,0.199-0.148,0.199l0,0c-0.758,0-1.752-0.002-2.541-0.002 M1243.551,70.635
						c-0.378,0.196-0.543,0.726-0.534,1.153l0,0c0.02,1.208,0.554,2.446,1.544,3.665l0,0c1.209,1.485,2.544,2.259,3.421,1.835l0,0
						c0.906-0.432,0.616-1.482,0.211-2.306l0,0c-0.029-0.065-0.032-0.118-0.016-0.171l0,0c0.014-0.085,0.126-0.168,0.235-0.207l0,0
						c0.039-0.015,0.061-0.043,0.017-0.132l0,0c-0.313-0.671-0.601-1.059-0.993-1.641l0,0c-0.36-0.538-0.767-0.959-1.26-1.363l0,0
						c-0.573-0.473-1.318-0.981-2.019-0.981l0,0C1243.95,70.487,1243.745,70.531,1243.551,70.635"/>
				</g>
			</g>
		</g>
	</g>
	<g id="g4208" transform="matrix(3.6405116,0,0,-3.6405116,-3614.0161,1059.4319)">
		<g id="g4210">
			<g id="g4216">
				<g id="g4218">
					<path id="path4232" fill="#FFFFFF" d="M1216.09,91.206c-0.703,0-1.408-0.027-2.119-0.084l0,0
						c-4.525-0.382-8.829-2.929-8.839-6.795l0,0c0-1.962,1.391-3.55,3.551-3.481l0,0c2.539,0.087,4.622,2.119,5.714,4.683l0,0
						c0.414,0.973-0.354,1.377-0.719,0.816l0,0c-0.652-1.009-1.569-1.791-2.562-2.278l0,0c-1.195-0.585-2.471-0.427-2.857,0.544l0,0
						c-0.544,1.368,0.587,3.414,3.168,4.378l0,0c3.729,1.38,7.63,0.466,11.382-0.239l0,0c0.054,0,0.254-0.111,0.076-0.203l0,0
						c-0.671-0.366-1.332-0.665-2.363-1.552l0,0c-0.74-0.633-1.708-1.475-2.457-2.394l0,0c-0.742-0.905-1.269-1.713-1.965-2.606l0,0
						c-0.098-0.131-0.217-0.124-0.215-0.124l0,0c-1.698-0.287-3.362-0.478-4.884-1.537l0,0c-0.315-0.217-0.451-0.603-0.26-0.898l0,0
						c0.172-0.262,0.563-0.289,0.834-0.091l0,0c0.946,0.708,1.921,1.04,3.038,1.071l0,0c0.049-0.003,0.071-0.012,0.085-0.04l0,0
						c0.012-0.017,0-0.053-0.016-0.08l0,0c-1.674-2.32-2.092-2.845-3.35-4.283l0,0c-0.644-0.739-1.277-1.363-1.985-2.013l0,0
						c-2.856-2.653-5.93-2.61-7.032-0.944l0,0c-0.657,0.999-0.571,2.046-0.139,2.917l0,0c0.53,1.065,1.604,1.846,2.497,2.302l0,0
						c0.332,0.17,0.427,0.593,0.095,0.978l0,0c-0.21,0.253-0.724,0.298-1.103,0.228l0,0c-1.171-0.217-2.554-1.101-3.371-2.166l0,0
						c-0.92-1.195-1.38-2.645-1.226-4.272l0,0c0.277-2.938,2.695-4.635,5.44-4.615l0,0c2.185,0.018,4.244,0.68,6.718,3.193l0,0
						c2.309,2.345,4.412,5.846,6.381,9.093l0,0c0.061,0.105,0.105,0.161,0.405,0.198l0,0c1.235,0.154,3.059,0.331,4.226,0.398l0,0
						c0.261,0.015,0.314,0.011,0.417-0.118l0,0c0.305-0.384,0.763-0.71,1.128-0.908l0,0c0.178-0.098,0.263-0.145,0.404-0.149l0,0
						c0.173-0.004,0.309,0.09,0.394,0.189l0,0c0.124,0.137,0.158,0.313,0.093,0.428l0,0c-0.069,0.119-0.885,0.572-0.91,0.754l0,0
						c-0.018,0.115,0.107,0.141,0.107,0.141l0,0c0.599,0.188,1.222,0.575,1.601,1.298l0,0c0.371,0.713,0.431,1.664-0.249,2.192l0,0
						c-0.595,0.464-1.496,0.39-2.214-0.254l0,0c-0.701-0.626-0.936-1.537-0.839-2.335l0,0c0.016-0.138,0.012-0.186-0.179-0.201l0,0
						c-1.081-0.085-2.121-0.116-3.279-0.177l0,0c-0.077-0.006-0.101,0.045-0.056,0.1l0,0c1.332,2.316,3.323,3.965,5.524,5.589l0,0
						c0.145,0.109,0.101,0.317,0.095,0.49l0,0c3.974-0.864,7.815-2.47,11.94-2.437l0,0c1.704,0.015,3.337,0.273,4.896,1.13l0,0
						c1.373,0.749,1.93,1.441,1.97,2.16l0,0c0.033,0.498-0.312,0.811-0.805,0.705l0,0c-4.167-0.958-8.14-0.947-12.287-0.445l0,0
						c-4.702,0.57-9.215,1.742-13.893,1.742l0,0c0,0,0,0-0.012,0 M1223.27,82.859c-0.06,0.44,0.083,1.031,0.554,1.447l0,0
						c0.236,0.21,0.555,0.258,0.752,0.089l0,0c0.219-0.188,0.116-0.655-0.106-0.98l0,0c-0.241-0.357-0.654-0.666-1.028-0.741l0,0
						c-0.012-0.002-0.021-0.004-0.031-0.004l0,0C1223.348,82.671,1223.297,82.715,1223.27,82.859"/>
				</g>
			</g>
		</g>
	</g>
</g>
</svg>
