<?xml version="1.0" encoding="utf-8"?>
<!-- Generator: Adobe Illustrator 14.0.0, SVG Export Plug-In . SVG Version: 6.00 Build 43363)  -->
<!DOCTYPE svg PUBLIC "-//W3C//DTD SVG 1.1//EN" "http://www.w3.org/Graphics/SVG/1.1/DTD/svg11.dtd">
<svg version="1.1" id="unilever" xmlns="http://www.w3.org/2000/svg" xmlns:xlink="http://www.w3.org/1999/xlink" x="0px" y="0px"
	 width="400px" height="300px" viewBox="0 0 400 300" enable-background="new 0 0 400 300" xml:space="preserve">
<g>
	<path fill="#1766A6" d="M133,221c-1.838,0.575-3.839,3.096-3.266,6.924c0.261,1.728,1.214,4.066,1.541,5.109
		c0.58,1.828,1.266,4.691,0.357,10.646c-1.151,7.455-3.899,12.609-10.085,12.49c-4.124,0-7.912-3.209-8.361-11.459
		c-0.464-7.793,0.12-11.107,1.374-17.978c0.569-3.104,0.795-5.735-1.72-5.274c-3.203,0.68-4.122,1.945-5.155,5.502
		c-1.945,6.643-2.28,11.336-2.061,16.034c0.464,9.966,4.925,16.496,15.01,16.718c11.682,0.235,16.38-11.109,16.831-20.502
		c0.348-6.877,0.232-11.681-0.799-15.346C135.867,221.459,135.061,220.422,133,221z"/>
	<path fill="#1766A6" d="M299.148,234.059c-10.77,0-13.054,16.154-14.773,16.154c-2.865,0-1.948-12.945-4.016-12.945
		c-1.834-0.004-2.732,2.183-2.979,3.205c-1.42,5.892-5.725,14.555-12.146,14.555c-1.486,0-4.121-0.577-4.121-2.066
		c0-1.604,10.088-1.826,10.088-9.506c0-2.859-2.634-6.875-6.531-6.875c-5.154,0-10.184,5.618-10.184,13.405
		c0,6.981,4.34,9.274,8.69,9.274c7.563,0,12.146-6.189,14.551-11.34c1.149,3.438,1.826,11.34,4.701,11.34
		c1.14,0,1.948-0.574,3.323-3.66c3.429-7.68,6.754-16.502,11.338-16.502c1.714,0,0.688,3.101,4.812,3.101
		c1.942,0,3.312-1.604,3.312-3.444C305.213,236.115,302.81,234.059,299.148,234.059z M263.174,241.168
		c2.41,0,3.101,2.85,2.523,4.576c-0.574,1.715-2.633,3.67-5.838,4.239C259.17,248.262,258.824,241.168,263.174,241.168z"/>
	<path fill="#1766A6" d="M175.207,223.744c0.14,1.891,1.254,3.442,3.442,3.442c2.51,0.004,4.343-2.859,4.113-5.5
		c-0.162-1.837-1.603-3.089-3.551-3.089C177.038,218.598,174.991,220.879,175.207,223.744z"/>
	<path fill="#1766A6" d="M250.474,234.637c-2.644,0-4.591,3.088-4.591,6.75c0,3.324,0.803,3.555,0.803,5.848
		c0,3.084-1.602,7.098-3.555,7.098c-4.569,0-5.721-18.101-8.471-18.101c-1.602,0-2.406,1.942-2.863,3.321
		c-2.531,7.221-5.951,15.127-12.484,15.127c-1.268,0-2.748-0.58-3.553-1.377c4.578-2.862,7.674-5.849,7.674-9.508
		c0-3.1-2.063-7.797-5.613-7.797c-4.468,0-9.625,6.764-9.625,14.78c0,1.496,0.234,2.524,0.465,3.319
		c-0.349,0.466-1.728,1.039-2.869,1.039c-3.092,0-6.371-3.289-6.762-5.221c2.309-4.984,6.917-10.761,6.072-24.598
		c-0.316-5.266-3.063-8.518-6.496-8.309c-4.684,0.289-8.961,10.736-8.278,21.84c0.132,2.173,1.08,8.136,2.409,11.086
		c-2.324,3.724-5.277,4.279-6.993,4.279c-2.413,0-6.074-1.375-6.07-6.982c1.724-4.704,0.578-10.084-1.831-10.084
		c-3.435,0-4.581,6.061-4.696,10.305c-1.142,2.526-2.406,4.586-4.129,4.586c-5.151,0-5.604-16.042-9.391-16.042
		c-3.092,0-8.407,10.196-10.017,10.196c-0.91,0-1.718-2.887-2.296-5.721c-0.16-0.793-0.313-1.754-0.828-1.801
		c-1.021-0.095-2.293,0.781-2.764,2.012c-0.475,1.216-1.325,5.035-2.251,8.519c-0.553,2.007-1.918,6.25-2.08,7.836
		c-0.119,1.146,0.363,2.001,1.508,2.12c2.849,0.294,13.344-12.615,16.665-12.615c4.246,0,5.267,12.713,10.086,12.713
		c2.862,0,5.496-7.324,7.218-7.324c1.943,0,2.86,7.324,8.358,7.324c6.88,0,9.166-4.469,11.231-4.469
		c1.711,0,3.549,4.354,7.785,4.354c2.635,0,4.935-0.801,7.678-2.639c1.601,1.838,3.543,2.754,5.386,2.754
		c11.329,0,14.537-10.196,16.838-10.196c2.06,0,1.603,10.081,7.456,10.081c7.779,0,13.057-13.633,13.057-20.967
		C252.654,236.231,252.074,234.637,250.474,234.637z M197.539,244.377c-0.684,0.049-1.416-0.709-1.713-5.633
		c-0.466-7.546,0.59-14.722,2.869-14.859c1.721-0.119,2.496,1.326,2.695,4.529C201.83,235.508,198.802,244.301,197.539,244.377z
		 M214.156,251.135c-0.467-0.584-1.486-1.947-1.486-4.822c0-3.665,2.396-4.807,3.438-4.807c1.249,0,2.288,1.605,2.288,3.545
		C218.396,247.342,217.471,250.098,214.156,251.135z"/>
	<path fill="#1766A6" d="M271.74,68.014c-2.01,0-4.627,1.884-7.367,1.884c-0.851,0-1.942,0-2.977-0.303
		c1.033,0.79,0.85,2.554,1.396,3.65c0.67,1.334,1.888,1.334,2.738,1.334c2.557,0,7.959-2.186,7.955-4.865
		C273.487,68.866,273.063,68.014,271.74,68.014z"/>
	<path fill="#1766A6" d="M265.472,76.892c-2.009,0-2.616,1.396-2.616,2.125c0,1.704,1.645,2.432,4.014,2.432
		c6.314,0,12.099-5.045,12.099-9.481c0-2.069-0.978-3.77-3.47-4.074c0.426,0.547,0.607,0.973,0.607,1.946
		C276.105,73.183,271.01,76.892,265.472,76.892z"/>
	<path fill="#1766A6" d="M278.904,77.437c-2.801,5.655-10.146,6.81-12.521,6.566c0.795,5.772,9.541,13.555,11.91,13.372
		c1.588-0.134,2.193-7.538,2.193-13.372C280.486,80.659,280.67,78.045,278.904,77.437z"/>
	<path fill="#1766A6" d="M132.788,144.785c1.458,3.038,3.036,3.402,6.926,3.645c-2.371-2.067-2.67-3.768-2.67-5.411
		c0-3.222,3.223-8.992,5.285-13.003c2.675-5.169,5.717-12.888,5.717-16.17c0-1.399-0.549-2.07-1.156-2.07
		c-0.669,0-1.399,0.914-1.947,2.617c-0.972,3.282-4.009,9.844-5.53,9.844c-0.305,0-0.424-0.302-0.424-0.668
		c0-2.37,3.705-10.757,3.705-13.675c0-0.791-0.365-1.581-1.155-1.581c-2.491,0-5.042,13.922-6.503,13.922
		c-0.547,0-0.852-0.366-0.852-1.522c0-2.307,1.399-6.504,1.399-9.36c0-0.973-0.243-1.763-1.035-1.763
		c-3.344,0-2.919,12.645-4.983,12.645c-0.548,0-1.216-0.245-1.216-3.102c0-2.675,0.243-4.252,0.243-5.043
		c0-0.488-0.184-0.852-0.729-0.852c-1.885,0-3.402,6.743-3.402,13.432c0,7.542,1.456,12.215,3.341,12.215
		c1.883,0,4.559-4.557,4.559-6.257c0-0.729-0.424-1.215-0.914-2.006c-1.459-2.371-0.056-5.043,1.097-5.043
		c1.579,0,1.64,1.394,3.648,3.1c0.791,0.669,1.091,1.398,1.091,2.248c0,4.314-9.115,10.393-9.115,20.788
		c0,12.035,9.115,14.164,10.271,16.228C144.761,156.457,126.282,157.732,132.788,144.785z"/>
	<path fill="#1766A6" d="M144.575,136.396c-1.399,0-1.764-1.273-2.251-1.273c-0.364,0-0.547,1.093-0.547,1.396
		c0.003,2.248,1.646,3.525,3.286,3.525c2.556,0,4.68-1.888,4.68-6.075v-6.202c0-2.371,0.183-5.043,1.766-6.932
		c-0.183,0.793-0.183,1.644-0.183,2.434c0,5.229,2.915,8.816,2.915,13.86c0,1.881-0.547,2.917-2.002,2.917
		c-1.399,0-1.277-1.277-1.583-1.277c-0.241,0-0.607,0.789-0.607,1.641c0,1.277,0.912,3.282,3.464,3.282
		c2.189,0,3.95-2.005,3.95-4.255c0-5.466-4.254-11.548-4.254-17.382c0-2.554,0.667-4.254,1.216-5.595
		c0,12.098,10.27,20.911,10.27,25.954c0,1.156-0.85,2.07-2.126,2.07c-1.397,0-2.067-1.097-2.067-1.949
		c0-0.425-0.062-0.545-0.243-0.545c-0.363,0-1.458,1.215-1.458,2.799c0,2.003,1.639,4.438,4.68,4.438
		c3.46,0,5.347-2.921,5.347-5.534c0-6.38-12.459-16.047-12.459-26.378c0-1.764,0.301-4.621,1.58-6.808
		c-8.027,5.162-10.518,12.033-10.518,18.05C147.431,133.786,147.25,136.396,144.575,136.396z"/>
	<path fill="#1766A6" d="M249.732,83.821c5.535,0,10.206-1.886,10.206-4.986c0-2.674-2.614-8.389-4.426-8.389
		c-1.156,0-3.106,1.277-4.624,1.277c-1.946,0-1.398-2.429-3.53-2.429c-0.485,0-1.032,0.123-1.579,0.421
		c-4.43,2.19-7.857,1.37-8.63,1.887c-0.18,0.121-0.362,0.244-0.364,0.608C236.785,76.77,241.654,83.821,249.732,83.821z
		 M243.344,75.006c0.73,0,2.675,0.973,5.232,1.397c2.98,0.489,4.563,0.548,5.353,0.548c0.791,0,1.155,0.183,1.155,0.422
		c0,0.731-2.006,1.948-4.683,1.948c-4.504,0-7.424-2.43-7.424-4.013C242.979,75.126,243.1,75.006,243.344,75.006z"/>
	<path fill="#1766A6" d="M158.01,186.727c8.873,0,11.063-6.141,11.063-10.277c0-9.175-5.65-15.621-13.003-15.621
		c-4.013,0-7.6,2.919-7.6,7.232c0,4.017,3.04,10.031,10.27,10.031c3.404,0,5.409-2.436,5.409-5.224c0-2.737-2.491-6.504-6.139-6.504
		c-1.093,0-1.881,0.724-1.881,1.884c0,1.454,2.001,2.917,4.497,2.917c0.605,0,1.093-0.122,1.338-0.245
		c0.12,0.188,0.181,0.487,0.181,0.732c0,1.398-1.337,2.251-3.404,2.251c-3.1,0-6.078-2.31-6.078-5.963
		c0-2.185,1.885-3.763,4.62-3.763c5.407,0,8.628,4.799,8.628,9.604c0,4.313-2.367,6.809-7.23,6.809
		c-9.729,0-14.465-8.756-12.341-17.631c-2.004,0.487-5.229,3.644-5.229,8.633C141.11,177.545,147.495,186.727,158.01,186.727z"/>
	<path fill="#1766A6" d="M188.4,186.299c-0.426,3.584-3.221,4.498-5.411,4.498c-1.581,0-4.073-0.547-4.19-1.154
		c-0.914-5.166-4.805-8.08-6.509-8.748c0.06,0.546,0.122,1.146,0.122,1.697c0,4.379-2.978,7.107-8.568,7.107
		c-0.91,0-2.066-0.059-2.918-0.242c6.382,7.111,10.94,4.498,13.921,5.836c3.892,1.76,7.053,7.17,19.51,7.17
		c4.561,0,9.18-1.762,12.217-3.705c0.545,1.82,2.432,3.463,5.53,3.463c5.289,0,8.269-1.64,8.269-2.979
		c0-0.363-0.062-0.913-0.971-0.913c-0.914,0-0.762,0.244-3.678,0.244c-3.404,0-8.846-1.339-11.342-7.17
		c-0.426-0.976-1.149-0.976-1.396-0.976c-1.699,0-4.316,6.02-15.016,6.02c-4.499,0-6.565-1.645-6.565-2.068
		c0-0.062,0-0.123,0.247-0.123c0.426,0,2.066,0.188,4.134,0.188c6.747,0,12.219-3.1,15.5-6.684c1.151-1.274,1.7-1.461,2.67-1.461
		c0.854,0,1.765,0.731,2.188,1.888c1.522,3.888,4.987,6.987,8.755,6.987c5.104,0,5.165-8.748,6.38-9.174
		c0.185,0.061,0.488,0.121,0.732,0.121c0.604,0,1.584-0.428,1.584-1.586c0-1.219-1.522-1.582-1.827-2.191
		c-0.605-1.148-0.121-3.152-1.943-3.152c-1.217,0-1.339,0.971-1.461,1.762c-2.611-0.791-4.803-1.156-6.746-1.156
		c-1.398,0-2.613,0.186-3.646,0.547c-0.729-1.217-3.708-3.588-6.319-4.44C200.621,181.379,195.694,185.693,188.4,186.299z
		 M213.445,183.989c1.338,0,2.43,1.095,2.43,2.437c0,1.338-1.092,2.434-2.43,2.434c-1.34,0-2.436-1.096-2.436-2.434
		C211.01,185.084,212.105,183.989,213.445,183.989z"/>
	<path fill="#1766A6" d="M267.664,164.414c0-7.533-5.479-10.881-10.401-10.881c-8.929,0-6.614,7.844-17.065,10.214
		c-1.951,0.429-2.496,1.037-2.496,1.89c0,1.574,0.912,3.64,2.006,3.64c4.549,0,11.609-9.42,12.888-9.42
		c0.485,0,1.094,0.056,1.095,1.336c0,3.407-9.855,7.901-9.855,10.335c0,1.465,3.467,4.557,6.875,4.557
		c4.93,0,9.355-10.087,10.388-10.087c0.791,0,1.094,0.603,1.094,1.212c0,2.735-3.34,8.086-9.169,10.396
		c-1.214,0.487-1.398,1.034-1.398,1.46c0,1.338,1.521,3.342,2.92,3.342C256.244,182.405,267.664,172.439,267.664,164.414z
		 M261.336,162.231c-0.664,0-1.332-0.243-1.762-0.491c-0.787-0.359-2.188-1.521-2.188-3.337c0-1.646,0.91-2.313,1.764-2.313
		c2.607,0,5.35,2.313,5.352,4.189C264.502,161.74,263.101,162.231,261.336,162.231z"/>
	<path fill="#1766A6" d="M147.678,104.848c2.978,0,4.377-2.553,4.377-5.165c0-4.072-3.708-6.932-6.749-7.839
		c-1.337,1.579-2.735,4.255-2.735,6.988C142.57,102.114,144.579,104.848,147.678,104.848z"/>
	<path fill="#1766A6" d="M127.135,109.956c1.945,0,4.558-1.399,7.656-4.074c-2.369,0.548-4.196,0.913-5.835,0.913
		c-2.188,0-3.888-0.852-5.713-3.647C123.243,107.765,124.644,109.956,127.135,109.956z"/>
	<path fill="#1766A6" d="M135.948,101.991c0,2.187,1.7,3.588,3.828,3.588c1.095,0,1.885-0.245,2.371-0.609
		c-1.7-1.641-2.309-3.466-2.309-5.287c0-1.279,0.181-2.067,0.426-2.797C138.861,97.25,135.948,98.952,135.948,101.991z"/>
	<path fill="#1766A6" d="M139.532,75.308c0-2.916-1.339-7.354-5.472-7.354c-2.368,0-4.073,1.884-4.073,4.134
		c0,4.803,4.804,6.746,9,6.746C139.289,77.861,139.532,76.649,139.532,75.308z"/>
	<path fill="#1766A6" d="M128.349,81.508c2.189,0,3.951-1.334,3.951-1.334c-3.525-1.036-5.47-3.647-5.468-7.115
		c0-0.366,0-0.667,0.06-1.034c-2.247,0.974-3.221,2.918-3.221,4.803C123.669,79.565,125.738,81.508,128.349,81.508z"/>
	<path fill="#1766A6" d="M144.879,77.8c-1.336,0-2.429,1.097-2.429,2.432c0,1.337,1.093,2.434,2.429,2.434
		c1.338,0,2.434-1.095,2.434-2.434C147.313,78.897,146.218,77.8,144.879,77.8z"/>
	<path fill="#1766A6" d="M145.609,85.703c0,1.337,1.097,2.433,2.436,2.433c1.334,0,2.431-1.096,2.431-2.433
		c0-1.335-1.097-2.43-2.431-2.43C146.705,83.273,145.609,84.367,145.609,85.703z"/>
	<path fill="#1766A6" d="M125.372,97.737c-0.06,0.307-0.06,0.609-0.06,0.912c0,2.856,1.517,4.438,3.523,4.438
		c1.514,0,3.281-0.911,4.858-2.919c-0.666,0.12-1.457,0.182-2.188,0.182C129.26,100.349,126.83,99.744,125.372,97.737z"/>
	<path fill="#1766A6" d="M142.083,84.973c-0.776-1.059-0.479-1.997-0.973-2.493c-0.279-0.284-1.151-0.302-2.25-0.424
		c-0.364-0.04-0.852-0.062-1.338-0.062c-2.003,0-4.381,0.247-7.049,1.947c-5.271,3.365-4.496,8.936-5.344,10.333
		c-0.116,0.187-0.185,0.427-0.185,0.67c0,0.547,0.609,1.155,1.152,1.155c0.488,0,0.792-0.121,1.035-0.121
		c1.458,0,3.1,1.032,5.468,1.032c1.396,0,3.04-0.427,5.104-1.456c4.377-2.191,6.081-7.6,6.081-8.513
		C143.786,85.884,142.858,86.036,142.083,84.973z M133.817,94.153c-2.005,0-4.193-2.491-4.193-4.742
		c0-1.214,0.912-2.736,1.579-2.736c0.243,0,0.366,0.184,0.425,0.611c0.365,2.977,2.312,4.681,4.135,5.529
		c0.184,0.121,0.305,0.181,0.305,0.303C136.068,93.545,134.912,94.153,133.817,94.153z M139.534,90.385
		c-2.128,0-3.829-3.222-3.829-5.049c0-1.152,0.669-1.272,1.579-1.272c0.424,0,0.609,0.061,0.912,0.243
		c0.545,0.305,0.545,1.518,1.214,2.43c0.422,0.573,1.584,1.279,1.584,1.704C140.995,89.289,140.505,90.385,139.534,90.385z"/>
	<path fill="#1766A6" d="M220.496,101.93c-1.887,0-3.463,1.583-3.463,3.465c0,1.886,1.576,3.464,3.463,3.464
		c1.881,0,3.467-1.578,3.467-3.464C223.963,103.513,222.377,101.93,220.496,101.93z"/>
	<path fill="#1766A6" d="M242.004,97.799c-1.383,0-2.541,1.153-2.541,2.55c0,1.401,1.158,2.555,2.541,2.555
		c1.4,0,2.559-1.154,2.559-2.555C244.562,98.952,243.404,97.799,242.004,97.799z"/>
	<path fill="#1766A6" d="M235.996,87.772c0,1.273,1.033,2.308,2.313,2.308s2.313-1.034,2.313-2.308c0-1.279-1.035-2.312-2.313-2.312
		S235.996,86.493,235.996,87.772z"/>
	<path fill="#1766A6" d="M221.525,94.397c-1.333,0-2.429,1.095-2.429,2.43c0,1.336,1.096,2.431,2.429,2.431
		c1.344,0,2.438-1.095,2.438-2.431S222.867,94.397,221.525,94.397z"/>
	<path fill="#1766A6" d="M242.494,105.153c-1.57,0-2.849,1.277-2.849,2.854c0,1.583,1.278,2.861,2.849,2.861
		c1.582,0,2.857-1.277,2.857-2.861C245.352,106.429,244.076,105.153,242.494,105.153z"/>
	<path fill="#1766A6" d="M233.137,104.605c0,1.338,1.095,2.434,2.438,2.434c1.336,0,2.43-1.096,2.43-2.434
		c0-1.335-1.094-2.429-2.43-2.429C234.231,102.175,233.137,103.271,233.137,104.605z"/>
	<path fill="#1766A6" d="M231.433,95.25c0,2.125,1.764,3.886,3.894,3.886c2.129,0,3.896-1.761,3.896-3.886
		c0-2.131-1.765-3.891-3.896-3.891C233.196,91.358,231.433,93.118,231.433,95.25z"/>
	<path fill="#1766A6" d="M224.998,93.604c0,1.279,1.035,2.315,2.299,2.315c1.275,0,2.312-1.036,2.312-2.315
		c0-1.273-1.037-2.308-2.312-2.308C226.033,91.296,224.998,92.33,224.998,93.604z"/>
	<path fill="#1766A6" d="M235.086,117.371c2.31,0,4.199-1.886,4.199-4.195c0-2.308-1.891-4.194-4.199-4.194
		c-2.313,0-4.198,1.886-4.198,4.194C230.887,115.485,232.772,117.371,235.086,117.371z"/>
	<path fill="#1766A6" d="M242.732,113.299c-1.199,0-2.295,1.033-2.295,2.248c0,1.397,1.096,2.372,2.295,2.372
		c1.34,0,2.375-0.974,2.375-2.372C245.107,114.333,244.074,113.299,242.732,113.299z"/>
	<path fill="#1766A6" d="M225.178,109.469c0,1.338,1.096,2.429,2.423,2.429c1.338,0,2.435-1.091,2.435-2.429
		s-1.097-2.431-2.435-2.431C226.273,107.038,225.178,108.132,225.178,109.469z"/>
	<path fill="#1766A6" d="M232.104,101.505c0-2.065-1.646-3.706-3.715-3.706c-2.055,0-3.696,1.64-3.696,3.706
		c0,2.07,1.642,3.708,3.696,3.708C230.457,105.213,232.104,103.574,232.104,101.505z"/>
	<path fill="#1766A6" d="M229,183.014c-0.608,0-1.276,0.606-1.945,1.399c-1.444,1.703-3.332,4.865-3.332,8.327
		c0,2.43,1.888,4.855,5.398,4.855c11.379,0,19.881-7.106,19.881-12.879c0-3.278-1.945-4.619-3.349-4.619
		c-1.579,1.22-5.276,3.949-11.422,3.949C230.947,184.049,229.486,183.014,229,183.014z M242.004,185.451
		c0.308,0,0.668,0.18,0.668,1.275c0,1.334-0.604,3.096-2.782,4.49c-1.521,1.039-3.591,1.892-6.632,1.944
		c0.486-1.454,0.854-2.978,0.854-4.429c0-0.487-0.061-0.854-0.121-1.4h0.791C239.586,187.336,241.656,185.451,242.004,185.451z"/>
	<path fill="#1766A6" d="M236.787,173.477c-4.441,0-6.814,2.002-6.814,2.854v2.795c0,1.159,2.679,2.313,5.965,2.313
		c2.614,0,4.986-0.669,6.557-2.007c0.493-0.42,0.606-1.094,0.606-1.767v-1.396C243.1,174.504,240.438,173.477,236.787,173.477z"/>
	<path fill="#1766A6" d="M225.666,132.142c0.729,0,0.959,0.485,0.959,0.79c0,1.036-1.752,2.734-1.752,4.437
		c0,2.125,2.482,3.404,4.125,3.404c1.946,0,2.676-0.729,2.676-1.947c0-1.517-2.676-3.525-2.676-5.162
		c0-0.913,0.854-1.036,2.01-1.036c2.434,0,3.346,0.366,3.346,0.914c0,0.728-1.033,2.005-1.033,2.43c0,0.243,0.121,0.668,0.73,0.668
		c2.007,0,8.929-1.397,8.929-2.793c0-1.521-6.553-6.507-7.894-6.507c-0.305,0-0.489,0.243-0.489,0.488
		c0,0.425,0.123,1.094,0.123,1.704c0,1.092-0.429,1.273-1.704,1.273c-1.398,0-3.528-0.482-3.528-2.611
		c0-4.256,8.029-3.223,8.821-7.112c-3.469,0-5.23-2.371-7.542-2.371c-0.915,0-2.438,0.484-2.438,2.614
		c0,0.668,0.244,1.882,0.244,2.857c0,0.974-0.244,1.701-1.275,1.701c-1.023,0-1.145-1.154-1.145-2.493
		c0-1.152,0.243-2.493,0.243-3.406c0-6.259-6.937-3.645-7.604-8.808c-1.643,3.036-2.246,5.225-2.248,6.987
		c0,6.503,8.877,5.835,8.877,10.456c0,1.095-0.851,1.821-1.645,1.821c-1.465,0-2.561-3.16-4.807-3.16
		c-1.217,0-2.063,0.914-2.063,2.738c0,1.396,0.299,2.432,0.299,3.708c0,2.609-1.09,3.886-2.367,5.041
		C222.805,138.096,223.412,132.142,225.666,132.142z"/>
	<path fill="#1766A6" d="M252.59,135.667c4.668,0,6.736,7.171,7.529,7.171c0.846,0,0.303-3.222,0.725-3.709
		c0.186-0.244,0.611-0.303,1.098-0.303c0.792,0,1.823,0.182,2.496,0.182c0.426,0,0.67-0.059,0.73-0.241
		c0.06-0.611-3.711-1.823-3.711-2.855c0-0.913,2.063-2.917,2.063-3.526c0-0.184-0.119-0.303-0.303-0.303
		c-0.91,0-3.769,2.187-7.83,2.187c-1.704,0-2.923-0.241-2.923-1.457c0-1.218,1.041-2.129,2.742-2.857
		c1.764-0.79,5.459-0.79,5.459-1.704c0-0.609-3.525-0.729-3.525-1.397c0-0.789,1.398-2.797,1.398-3.71
		c0-0.059-0.06-0.305-0.242-0.305c-0.668,0-2.299,2.008-3.394,2.008c-0.978,0-1.827-2.49-2.741-2.552
		c-0.24,0-0.425,0.183-0.425,0.605c0,0.974,0.425,2.86,0.425,5.292c0,2.129-1.093,4.07-2.369,4.07c-1.521,0-2.01-1.764-2.01-3.28
		c0-2.192,1.158-4.744,1.154-6.994c0-0.545-0.125-0.729-0.426-0.729c-0.916,0-2.254,2.432-3.223,2.432
		c-0.611,0-1.89-2.977-2.802-2.977c-0.247,0-0.306,0.486-0.306,1.096c0,0.852,0.123,1.943,0.123,2.492
		c0,0.728-0.903,0.789-1.813,0.789c-0.609,0-2.068,0-2.068,0.488c0,0.487,1.275,1.091,2.432,1.821
		c2.239,1.459,5.645,2.98,5.645,6.505c0,3.16-4.561,5.407-7.651,5.955c-1.459,0.246-3.04,0.548-3.04,0.976
		c0,0.728,4.016,0.85,4.016,1.76c0,0.487-1.766,2.859-1.766,3.586c0,0.121,0.123,0.182,0.244,0.182c0.672,0,2.617-1.639,3.515-1.639
		c1.22,0,0.976,3.463,1.888,3.463c0.976,0,0.672-5.167,1.096-6.503c0.73-2.311,2.373-4.62,3.832-4.62
		c1.767,0,1.949,3.161,1.949,4.62c0,3.102-2.252,6.261-2.252,7.66c0,0.179,0.121,0.362,0.303,0.362c0.67,0,2.253-2.005,2.979-2.005
		c0.851,0,2.618,3.341,3.349,3.341c0.363,0,0.425-0.361,0.425-0.666c0-0.969-0.485-2.613-0.485-3.709
		c0-1.213,3.881-0.547,3.881-1.272c0-0.368-1.705-1.036-2.726-1.707c-2.251-1.337-4.623-4.134-4.623-6.562
		C251.433,136.214,251.92,135.667,252.59,135.667z"/>
	<path fill="#1766A6" d="M219.343,176.512c10.935,0,16.169-8.813,16.231-15.502c-2.01,1.826-7.424,2.371-10.209,2.371
		c-8.395,0-10.582-4.256-11.74-4.256c-1.153,0-1.153,1.885-1.153,2.555c0,0.668-0.06,0.912-0.425,0.912
		c-0.426,0-0.911-0.244-1.276-0.244c-0.364,0-0.608,0.306-0.608,0.852c0,2.557,3.223,4.434,6.506,4.434
		c4.195,0,6.263-1.758,7.361-1.758c0.485,0,0.729,0.553,0.729,0.846c0,0.672-0.729,1.465-0.729,1.891
		c0,0.973,2.064,0.188,2.064,1.337c0,1.463-2.492,2.739-6.389,2.739c-7.535,0-12.519-5.229-12.519-10.028
		c0-9.062,9.784-6.141,9.784-9.665c0-1.217-1.157-1.768-1.945-1.887c1.094-1.278,2.43-1.583,3.77-1.583
		c1.033,0,2.008,0.183,2.855,0.183c1.158,0,2.376-0.424,2.376-1.761c0-0.793-0.67-1.764-3.469-2.13
		c0.303-1.881,4.255-0.907,4.257-2.49c0-1.157-2.255-2.065-4.926-2.065c-10.396,0-17.994,8.447-17.994,17.745
		C201.896,167.391,207.975,176.512,219.343,176.512z"/>
	<path fill="#1766A6" d="M222.135,160.404c1.705,0,2.863-1.342,2.863-2.914c0-2.311-2.379-4.561-5.9-4.561
		c0.605,0.604,0.79,1.214,0.79,1.822c0,0.909-0.425,1.885-0.425,2.918C219.463,159.125,220.558,160.404,222.135,160.404z"/>
	<path fill="#1766A6" d="M227.176,142.594c0.851,1.034,1.152,2.068,1.152,3.1c0,2.615-1.994,5.29-1.994,7.841
		c0,3.404,2.238,5.53,5.344,5.53c3.408,0,5.354-2.853,5.354-5.952C237.029,148.614,233.563,143.812,227.176,142.594z M231.799,152.2
		c-0.852,0-1.461-0.67-1.461-1.521c0-0.487,0.304-1.217,0.367-1.822c0.119-0.79-0.063-1.52,0.424-1.52
		c1.097,0,2.252,1.763,2.252,3.039C233.381,151.348,232.771,152.2,231.799,152.2z"/>
	<path fill="#1766A6" d="M242.494,159.676c2.493,0,4.196-2.002,4.196-4.377c0-3.223-2.919-5.956-7.471-6.257
		c0.426,0.665,0.608,1.334,0.608,1.941c0,1.704-1.156,3.283-1.156,5.05C238.674,158.035,240.194,159.676,242.494,159.676z"/>
	<path fill="#1766A6" d="M158.011,85.641c-2.978,0-1.641-4.982-3.159-4.982c-1.278,0-1.642,2.674-1.642,3.708
		c0,3.464,2.249,7.111,7.23,7.111c5.352,0,8.329-2.492,11.551-5.896c0.605,3.647,2.612,9.91,7.96,9.91
		c2.915,0,4.985-2.435,5.228-5.229c-0.364,0.363-0.914,0.668-1.521,0.668c-1.093,0-1.336-1.582-1.336-2.977
		c0-2.251,0.667-4.681,1.7-4.681c0.547,0,0.854,0.363,0.975,2.005c0.124,1.277,0,2.676,0.791,2.676c0.79,0,1.274-2.494,1.274-4.194
		c0-3.891-1.822-7.356-5.835-7.356c-3.098,0-5.958,2.614-8.026,6.018c0.124-0.67,0.185-1.399,0.185-2.066
		c0-4.742-2.55-8.997-7.357-8.997c-3.886,0-7.41,2.248-8.871,6.624c0.424-0.427,1.702-1.213,2.737-1.213
		c1.216,0,1.581,1.031,1.581,2.673c0,1.097-0.243,2.37-0.669,3.588C160.076,85.032,158.742,85.641,158.011,85.641z M180.86,80.355
		c0.368,0,0.49,0.849,0.49,1.639c0,3.647-1.702,9.484-3.219,9.484c-0.366,0-0.672-0.547-0.674-1.824
		C177.457,86.372,179.584,80.355,180.86,80.355z M176.061,82.299c0.241,0,0.488,0.243,0.488,1.279c0,2.125-0.974,4.254-1.643,4.254
		c-0.605,0-0.972-0.973-1.093-3.162C174.787,83.03,175.454,82.299,176.061,82.299z M170.228,78.591c0.727,0,1.214,1.339,1.214,2.553
		c0,0.912,0,1.642-0.12,2.433c-1.584,1.757-2.436,2.491-3.105,2.491c-0.362,0-0.723-0.608-0.725-1.334
		C167.493,83.455,168.4,78.591,170.228,78.591z M167.068,74.214c0.426,0,0.605,0.365,0.605,0.852c0,1.886-2.369,13.07-4.433,13.07
		c-0.551,0-0.67-0.487-0.669-0.912C162.571,84.854,165.184,74.214,167.068,74.214z"/>
	<path fill="#1766A6" d="M151.39,112.69c2.128-4.743,7.78-6.87,11.427-6.87c0.732,0,1.276,0.061,1.702,0.122
		c-1.885,1.7-2.309,4.679-2.433,6.686c-0.058,0.973-0.426,1.036-1.097,1.036c0,2.003,1.584,4.983,1.584,6.502
		c0,0.547-0.305,1.034-0.607,1.156c0,2.674,2.671,4.619,2.671,6.319c0,0.425-0.119,0.792-0.304,0.975
		c0.185,1.095,3.125,2.935,3.506,3.856c0.467,1.121,0.993,1.311,1.297,1.311c1.033,0,2.67-1.217,2.67-2.312
		c0-0.364-0.305-0.79-0.544-0.974c-1.157-0.848-1.764-2.672-2.251-3.886c-0.426,0-0.975-0.18-1.169-0.896
		c-0.332-1.259-0.348-3.603-0.836-5.002c-0.79-0.182-1.156-0.486-1.156-2.127c0-0.79,0.489-3.892,0.489-4.987
		c-0.364,0-0.85-0.243-0.85-0.972c0-1.943,1.946-3.463,2.49-5.955c3.466,2.55,4.314,5.164,4.314,7.477
		c0,1.212-0.183,2.368-0.426,3.465c2.554-1.279,6.383-3.163,6.383-6.992c0-2.251-1.034-4.742-7.902-5.715
		c2.126-0.79,4.803-1.214,7.051-1.214c3.892,0,6.139,1.214,6.623,3.948c0.792-1.214,1.399-2.613,1.399-3.888
		c0-2.98-2.494-4.923-5.653-4.923c-3.708,0-6.989,1.942-10.517,4.316c1.586-3.282,2.673-5.227,4.622-5.227
		c0.303,0,0.607,0.061,0.912,0.123c-0.73-2.673-3.464-5.29-4.924-5.29c-2.614,0-2.734,3.167-2.734,9.544
		c-1.946-4.192-5.166-8.692-8.936-8.692c-2.553,0-3.522,1.704-3.522,4.679c0,0.609,0.06,1.522,0.182,2.066
		c0.305-1.031,1.278-1.458,2.49-1.458c2.618,0,5.777,2.004,7.843,4.743c-2.369-0.425-4.68-0.852-6.623-0.852
		c-1.218,0-2.311,0.122-3.223,0.547c-1.762,0.789-4.132,3.404-4.132,7.355C151.207,111.294,151.269,111.96,151.39,112.69z"/>
	<path fill="#1766A6" d="M271.313,159.066c4.123-3.643,6.436-8.995,6.436-13.917c0-4.621-2.431-8.571-5.477-8.571
		c-2.662,0-4.123,2.125-4.123,4.439c0,1.396,0.547,2.856,1.643,3.893c-1.096-1.096-2.613-1.645-4.563-1.645
		c-2.189,0-4.02,1.705-4.02,4.257C261.211,153.475,271.252,150.863,271.313,159.066z"/>
	<path fill="#1766A6" d="M235.084,80.539c0-0.913-0.426-2.921-1.157-3.89c0,5.468-3.956,7.658-7.407,7.658
		c-0.852,0-1.645-0.122-2.372-0.425c0.729-0.609,1.336-1.704,1.336-2.375c0-0.425-0.36-0.666-0.907-0.666
		c-0.429,0-1.221,0.18-1.894,0.18c-1.704,0-3.099-0.667-4.681-2.187c-1.092,1.521-1.578,3.586-1.58,5.533
		c0,3.282,1.273,6.381,2.674,6.625c0.79,0.061,0.729-2.252,1.881-2.252c0.368,0,1.831,0.975,4.752,0.975
		C230.215,89.716,235.084,87.164,235.084,80.539z"/>
	<path fill="#1766A6" d="M225.85,76.282c0,0.366,0.184,0.729,0.607,0.912c1.569,0.728,2.543,1.884,3.03,2.917
		c2.736-1.521,3.834-5.714,3.834-8.145c0-0.731,0-1.765-0.67-1.765c-0.487,0-1.096,0.609-1.702,0.609
		c-0.551,0-2.07-2.067-5.949-2.067c-4.442,0-6.27,3.282-6.27,5.957c0,0.729,0.184,1.459,0.426,2.068
		c0.363-1.704,2.188-3.586,4.869-3.586c0.85,0,2.663,0.423,3.148,1.214C226.455,74.761,225.848,75.613,225.85,76.282z"/>
	<path fill="#1766A6" d="M180.256,46.378c0,1.093,3.829,3.465,5.594,3.465c1.031,0,1.336-1.399,1.336-2.858
		c0-1.823-0.787-1.884-2.369-1.884C182.811,45.102,180.256,45.648,180.256,46.378z"/>
	<path fill="#1766A6" d="M186.941,69.714c0-0.482-0.123-0.967-0.363-1.334c-1.095-1.52-8.814-7.599-10.518-7.599
		c-0.184,0-0.305,0.184-0.305,0.366c0,2.127,7.598,12.521,9.06,12.521C186.032,73.668,186.941,71.542,186.941,69.714z"/>
	<path fill="#1766A6" d="M141.96,47.35c1.341,0,3.464-0.607,4.986-0.607c0.852,0,1.643,0.181,1.643,0.971
		c0,1.521-3.285,4.257-3.285,5.473c0,0.365,0.303,0.488,0.607,0.488c1.217,0,3.285-3.102,5.228-3.102
		c3.222,0,1.097,6.868,2.856,6.868c1.823,0,1.033-6.749,3.646-6.749c2.132,0,3.709,4.682,5.168,4.682
		c0.366,0,0.669-0.303,0.669-0.729c0-1.273-1.824-3.891-1.824-5.591c0-1.034,0.73-1.521,1.702-1.521
		c1.396,0,3.282,0.852,4.312,0.852c0.364,0,0.729-0.12,0.729-0.545c0-1.459-5.405-3.039-5.405-4.923
		c0.001-1.885,2.978-1.885,2.978-2.738c0-0.365-1.823-0.73-4.314-0.73c-3.952,0-3.404,3.287-6.442,3.287
		c-3.161,0-2.375-3.409-6.386-3.409c-2.431,0-4.676,0.428-4.676,0.974c0,0.731,2.854,0.427,2.854,2.435
		c0,2.125-6.141,2.733-6.141,4.01C140.868,47.168,141.354,47.35,141.96,47.35z"/>
	<path fill="#1766A6" d="M129.258,54.222c-1.397,0-3.221,0.36-4.01,1.089c-0.668,0.549-1.216,2.253-1.216,3.467
		c0,0.668,0.185,1.396,0.792,1.396c1.639,0,6.257-4.071,6.257-5.288C131.082,54.4,130.108,54.222,129.258,54.222z"/>
	<path fill="#1766A6" d="M123.727,50.814c0,1.824,11.912,0.121,11.912,2.008c0,2.064-10.391,10.997-10.391,13.976
		c0,0.669,0.487,0.974,1.152,0.974c3.162,0,11.363-6.017,13.614-6.017c0.791,0,0.852,0.971,0.852,1.823
		c0,1.582-0.546,4.01-0.546,5.776c0,1.396,0.365,2.368,1.579,2.368c2.253,0,4.314-3.829,5.839-3.829
		c1.943,0,0.789,11.244,3.707,11.244c2.49,0,3.523-12.155,5.104-12.155c1.583,0,2.86,3.525,4.318,3.525
		c1.82,0,0.97-6.139,2.918-6.139c2.125,0,8.204,7.295,10.939,7.295c0.85,0,1.153-0.671,1.153-1.522
		c0-3.222-4.495-10.512-4.495-12.821c0-0.607,0.179-0.791,0.848-0.791c2.369,0,9.302,3.282,12.583,3.282
		c1.102,0,1.767-0.606,1.767-1.398c0-3.648-9.86-10.273-9.971-13.127c-0.011-0.263,0.132-0.522,0.354-0.754
		c1.689-1.782,8.704-3.082,8.704-4.6c0-0.787-1.461-0.787-2.191-0.787c-5.652,0-13.919,2.066-13.919,4.07
		c0,2.07,7.416,7.114,7.416,9.607c0,0.668-0.424,0.911-1.095,0.911c-2.064,0-6.563-2.494-8.689-2.494
		c-0.974,0-1.341,0.668-1.341,1.644c0,2.916,3.466,8.447,3.466,10.084c0,0.184-0.062,0.427-0.305,0.427
		c-1.095,0-6.257-6.075-8.083-6.075c-0.667,0-0.73,0.909-0.73,2.248v2.065c0,1.398-0.061,2.25-0.725,2.25
		c-1.586,0-2.313-4.437-3.832-4.437c-1.581,0-1.885,7.899-3.402,7.899c-1.766,0-0.245-8.692-1.947-8.692
		c-1.883,0-4.013,5.777-5.351,5.777c-0.484,0-0.605-0.489-0.605-0.914c0-1.761,1.03-4.618,1.03-6.318
		c0-0.854-0.243-1.338-0.968-1.338c-1.889,0-6.02,3.039-7.598,3.039c-0.245,0-0.548-0.121-0.548-0.366
		c0-1.455,6.623-6.077,6.623-8.143c0-2.008-9.121-0.669-9.121-2.98c0-1.944,6.509-3.951,6.509-5.956c0-1.764-7.719-2.55-10.697-2.55
		c-3.587,0-5.531,0.42-5.531,1.454c0,1.582,8.146,2.07,8.146,3.466C132.177,45.162,123.727,48.748,123.727,50.814z"/>
	<path fill="#1766A6" d="M261.883,47.591c-2.979,0.062-8.743,1.401-8.743,2.19c0,0.971,10.325,2.065,10.325,6.381
		c0,2.794-2.254,3.1-3.155,3.1c-3.394,0-5.222-3.525-6.134-3.525c-0.245,0-0.487,0.184-0.487,0.489c0,0.545,0.487,2.002,0.487,3.524
		c0,3.886-4.319,4.313-4.319,5.104c0,0.305,0.122,0.425,0.604,0.486c3.166,0.485,6.395,0.728,9.418,0.728
		c11.007,0,20.002-3.404,20.002-13.004c0-5.228-1.646-6.99-1.646-9.545c0-0.849,0.606-2.612,2.252-3.588
		c-3.043,0-3.53-0.907-5.599-0.907c-2.494,0-4.245,1.7-4.245,4.253c0,0.852,0.303,2.189,0.303,3.949c0,2.13-0.421,4.135-2.312,4.135
		c-1.768,0-2.432-1.154-2.432-2.493c0-2.428,1.274-4.07,1.274-5.653c0-2.857-3.526-3.708-7.294-3.708
		c-4.491,0-9.355,1.218-9.355,1.826C250.828,42.366,257.324,41.758,261.883,47.591z M274.888,41.211c0.853,0,1.522,0.67,1.522,1.522
		c0,0.849-0.672,1.517-1.522,1.517c-0.853,0-1.519-0.668-1.519-1.517C273.369,41.881,274.035,41.211,274.888,41.211z M273.73,50.027
		c1.585,0.487,2.559,2.064,2.559,3.829c0,3.159-3.043,6.925-11.365,6.925c-0.729,0-1.459,0-2.252-0.059
		C269.791,59.567,273.73,55.433,273.73,50.027z"/>
	<path fill="#1766A6" d="M278.779,123.205c-2.857,0-4.504,4.987-7.289,5.289c1.754-7.294,8.993-11.062,8.993-17.87
		c0-7.719-6.513-10.457-9.235-12.157c-4.502-6.439-7.729-11.487-15.01-11.487c-3.104,0-5.05,0.549-7.181,0.549
		c-4.134,0-5.413-1.583-5.718-1.583c-0.062,0-0.118,0.062-0.118,0.304c0,5.656,2.979,18.599,16.045,18.599
		c6.995,0,9.976-2.673,11.616-2.673c1.752,0,7.408,1.943,7.408,8.387c0,3.588-2.857,7.235-3.892,7.235
		c-0.974,0-2.067-1.645-2.067-3.345c0-1.885,1.035-5.411,1.035-7.596c0-0.792-0.123-1.218-0.609-1.218
		c-1.086,0-6.313,3.281-6.313,7.477c0,3.586,5.296,5.777,7.286,6.808c-1.99,3.282-3.208,5.412-4.184,8.449
		c0-2.307-2.191-6.988-2.865-8.874c-3.284-9.118-4.501-10.821-11.417-11.612c1.032,3.647,12.94,12.463,12.94,21.459
		c0,0.548-0.062,1.336-0.121,1.639c-3.586-10.515-9.789-12.944-12.025-15.5c-3.596-4.013-1.523-7.899-7.364-10.09
		c0.365,0.486,0.488,1.095,0.488,1.764c0,1.945-1.097,4.375-1.097,6.078c0,6.32,7.425,4.438,11.729,7.901
		c4.254,3.404,6.626,8.999,8.393,15.196c1.701-2.732,2.674-6.013,5.701-6.013c1.95,0,2.616,2.43,2.616,4.129
		c0,0.364,0,0.671-0.06,0.914c2.918-2.49,4.441-6.505,4.441-9.176C280.906,124.361,280.238,123.205,278.779,123.205z M267.297,99.38
		c-0.61,0-1.768-0.304-2.557-0.304c-2.07,0-3.531,2.854-4.619,2.854c-0.363,0-0.55-0.364-0.55-0.669c0-1.156,2.066-2.552,2.066-3.34
		c0-0.547-0.912-0.729-1.276-0.729c-2.066,0-4.974,2.855-6.615,2.855c-0.305,0-0.67-0.18-0.67-0.545
		c0-0.792,2.191-1.885,2.191-2.736c0-0.787-0.911-0.908-1.521-0.908c-1.033,0-3.041,0.545-4.319,0.545
		c-0.731,0-1.277-0.18-1.277-0.728c0-1.218,3.954-0.425,3.954-1.886c0-0.67-1.215-2.005-1.215-2.734
		c0-0.305,0.303-0.487,0.607-0.487c1.398,0,2.859,3.831,4.502,3.831c0.728,0,0.914-0.548,0.914-1.34
		c0-0.787-0.125-1.212-0.125-1.882c0-0.729,0.291-0.911,0.535-0.911c1.035,0,1.945,5.471,4.74,5.471
		c1.216,0,0.366-3.342,1.459-3.342c0.671,0,0.852,0.971,0.916,1.516c0.303,3.588,3.529,3.708,3.529,4.984
		C267.969,99.076,267.783,99.38,267.297,99.38z"/>
	<path fill="#1766A6" d="M215.811,57.805c0,1.032,4.137,0.304,4.137,1.58c0,1.275-3.039,5.531-3.039,6.744
		c0,0.306,0.06,0.306,0.301,0.306c1.156,0,4.621-3.954,5.474-3.954c0.978,0,1.157,2.374,1.345,3.77
		c0.12,0.731,0.243,0.791,0.549,0.791c0.729,0,1.883-2.795,2.664-2.795c1.151,0,4.258,3.222,9.428,3.222
		c7.35,0,14.283-5.168,14.283-14.282c0-8.815-6.209-13.982-14.771-13.982c-4.073,0-7.059,2.007-8.639,2.007
		c-0.959,0.062-2.418-2.369-3.152-2.369c-0.303,0-0.607,0.604-0.607,1.639c0,0.671,0,2.796-0.729,2.796
		c-1.462,0-7.111-4.192-7.111-2.675c0,1.399,3.765,5.655,3.765,6.748c0,1.093-3.705,2.129-3.705,2.857
		c0,1.336,3.951,1.58,3.951,3.283C219.947,55.191,215.811,56.529,215.811,57.805z M236.115,42.063c6.01,0,9.6,4.134,9.6,11.062
		c0.004,8.754-6.129,10.94-9.414,10.94c-4.26,0-7.057-2.125-7.057-3.222c0-0.548,0.363-0.91,0.854-0.91
		c1.336,0,4.256,2.064,5.229,2.064c0.246,0,0.426-0.119,0.426-0.485c0-1.095-1.033-2.917-1.033-3.827
		c0-0.245,0.184-0.425,0.548-0.425c1.642,0,4.073,0.669,5.354,0.669c0.426,0,0.545-0.244,0.545-0.489
		c0-1.337-3.955-3.95-3.955-4.741c0-0.728,4.916-1.826,4.916-2.977c0-1.217-6.684-0.365-6.684-1.521c0-0.85,1.279-2.309,1.279-2.977
		c0-0.304-0.244-0.425-0.669-0.425c-0.548,0-3.468,1.155-4.685,1.155c-0.606,0-1.34-0.121-1.34-0.975
		C230.029,43.581,232.402,42.063,236.115,42.063z M222.074,49.843c0-0.121,0.12-0.182,0.303-0.182c0.672,0,1.83,0.243,2.744,0.243
		c0.791,0,0.912-3.404,1.508-3.404c0.427,0,1.154,3.222,1.828,3.222c0.789,0,2.248-0.913,2.856-0.913
		c0.119,0,0.243,0.059,0.243,0.183c0,0.426-1.521,2.064-1.521,2.551c0,0.548,3.407,1.218,3.407,1.704
		c0,0.609-3.467,0.548-3.467,1.095c0,0.422,1.278,2.125,1.278,2.673c0,0.123-0.064,0.184-0.185,0.184
		c-0.489,0-2.373-0.854-2.92-0.854c-0.671,0-1.753,2.493-2.301,2.493c-0.181,0-0.304-0.243-0.304-0.548l-0.121-2.429
		c0-0.243-0.118-0.488-0.426-0.488c-0.729,0-2.129-0.062-2.56-0.062c-0.306,0-0.424-0.06-0.424-0.182
		c-0.003-0.486,2.435-2.186,2.435-2.611C224.451,51.847,222.074,50.572,222.074,49.843z"/>
	<path fill="#1766A6" d="M197.947,166.844c-0.117-1.088-0.729-2.123-1.885-2.123c-0.912,0-1.582,0.668-1.582,1.705
		c0,0.965,0.669,1.762,0.669,2.793c0,0.547-0.185,1.156-0.669,1.76c-0.666-1.213-2.552-1.821-3.404-1.819
		c-6.26,0-3.891,9.058-10.576,9.058c-2.795,0-3.042-0.363-4.071-0.363c-0.426,0-0.67,0.183-0.67,0.547
		c0,1.583,2.251,5.469,8.512,5.469c6.259,0,12.279-3.826,12.279-8.572c0-0.791-0.182-1.636-0.549-2.488
		c0.244-0.363,0.854-0.605,1.399-0.605c0.972,0,1.519,1.098,2.431,1.098c0.974,0,1.705-0.733,1.705-1.703
		c0-0.795-0.427-1.34-1.154-1.707c0.486-0.362,0.852-0.971,0.852-1.641c0-1.037-0.732-2.003-1.949-2.003
		C198.736,166.245,198.373,166.43,197.947,166.844z"/>
	<path fill="#1766A6" d="M161.901,152.316c-2.125,0-4.499,1.152-4.499,2.855c0,1.041,0.547,1.769,4.437,2.746
		c4.863,1.207,7.296,3.821,7.779,6.924c0.486,2.978,1.093,5.412,2.248,6.625c1.521,1.705,4.499,3.217,7.115,3.217
		c2.188,0,3.948-0.723,3.948-2.731c0-2.188-2.977-7.112-7.354-7.112c-0.424,0-0.971,0.063-1.58,0.063
		c-0.547,0-1.339-0.119-1.823-0.548c-0.97-0.854-1.276-5.412-3.1-8.146C167.066,153.17,164.879,152.316,161.901,152.316z
		 M175.754,167.086c1.522,0,4.254,1.889,4.254,3.471c0.001,0.423-0.301,0.975-1.209,0.975c-1.827,0-4.561-1.95-4.561-3.045
		C174.238,167.571,175.091,167.086,175.754,167.086z"/>
	<path fill="#1766A6" d="M192.352,150.497c0,1.644-2.856,3.224-6.746,3.22c-4.316,0-7.294-0.726-10.031-3.466
		c-0.728-0.727-1.031-1.453-1.944-1.453c-1.034,0-1.459,1.819-1.459,3.462c0,5.955,5.653,13.011,13.556,13.011
		c9.847,0,13.676-6.808,13.676-12.278c0-3.226-0.729-6.264-6.138-8.267c-2.741-1.036-4.011-2.678-4.56-5.839
		c-1.34,1.888-2.007,3.647-2.007,4.683C186.699,147.701,192.352,147.762,192.352,150.497z M195.086,153.235
		c0.547,0,1.037,0.358,1.037,1.213c0,3.163-3.467,6.869-5.655,6.869c-0.85,0-0.972-0.427-0.972-1.155
		c0-0.552,0.183-1.576,0.183-2.367c0-2.127,0.832-1.966,2.917-2.918C194.056,154.206,194.6,153.235,195.086,153.235z"/>
	<path fill="#1766A6" d="M182.811,126.126c0-2.614,4.374-4.561,4.374-8.755c0-2.43-2.371-5.411-5.59-7.172
		c0.547,1.034,0.852,2.429,0.852,3.221c0,4.803-9.242,6.869-9.242,10.76c0,4.803,8.938,6.867,8.936,9.119
		c0,0.729-0.43,1.213-1.399,1.213c-1.095,0-2.795-0.971-4.501-2.43c-1.941,1.886-3.219,4.496-3.219,7.472
		c0,6.02,6.321,11.062,12.462,11.062c1.035,0,2.005-0.182,3.097-0.424c-3.339-0.427-5.528-2.977-5.528-6.077
		c0-4.011,4.437-7.599,4.437-10.696C187.488,129.65,182.811,129.165,182.811,126.126z"/>
	<path fill="#1766A6" d="M137.95,154.206c0.257,2.073,2.193,3.647,4.377,3.405c0.789-0.089,1.521-0.303,2.008-0.605
		c0.486,1.941,2.119,3.192,4.323,2.902c2.238-0.29,3.761-2.055,3.52-4.304c-0.063-0.604-0.184-0.976-0.364-1.398
		c0,0,0.296-0.032,0.519-0.073c2.195-0.416,3.674-2.179,3.491-4.305c-0.241-2.188-2.206-3.812-4.249-3.56
		c-0.794,0.097-1.524,0.399-2.012,0.824c-0.549-1.821-2.264-3.404-4.603-3.018c-2.113,0.351-3.51,2.144-3.299,4.418
		c0.035,0.369,0.12,0.79,0.303,1.214c0,0-0.357,0.054-0.604,0.088C139.586,150.058,137.662,151.844,137.95,154.206z M146.744,149.78
		c1.271-0.149,2.418,0.765,2.563,2.034c0.148,1.27-0.758,2.414-2.027,2.563c-1.269,0.148-2.419-0.762-2.564-2.027
		C144.567,151.077,145.476,149.928,146.744,149.78z"/>
</g>
</svg>
